<?xml version="1.0" standalone="no"?>
<!DOCTYPE svg PUBLIC "-//W3C//DTD SVG 20010904//EN"
 "http://www.w3.org/TR/2001/REC-SVG-20010904/DTD/svg10.dtd">
<svg version="1.0" xmlns="http://www.w3.org/2000/svg"
 width="300.000000pt" height="173.000000pt" viewBox="0 0 300.000000 173.000000"
 preserveAspectRatio="xMidYMid meet">
<metadata>
Created by potrace 1.10, written by Peter Selinger 2001-2011
</metadata>
<g transform="translate(0.000000,173.000000) scale(0.100000,-0.100000)"
fill="#000000" stroke="none">
<path d="M1371 1353 c-8 -14 -13 -15 -35 -5 -24 11 -38 0 -16 -13 21 -13 7
-22 -56 -34 -36 -8 -78 -19 -93 -26 -36 -18 -71 -28 -71 -20 0 3 14 11 31 17
16 6 28 12 26 14 -6 6 -81 -17 -97 -30 -34 -28 -97 -39 -152 -28 -31 6 -54 7
-56 1 -2 -5 -15 -9 -28 -9 -25 0 -27 -6 -24 -51 1 -23 -11 -33 -112 -89 -62
-34 -123 -63 -135 -64 -11 0 -19 -4 -17 -7 5 -9 -55 -33 -63 -26 -3 3 -20 -5
-37 -18 -17 -13 -75 -44 -128 -70 -54 -26 -98 -51 -98 -56 0 -5 -7 -9 -15 -9
-8 0 -15 -7 -15 -16 0 -23 -69 -89 -81 -77 -5 5 -22 8 -38 5 -27 -4 -41 -22
-45 -57 -1 -5 -5 -13 -10 -17 -14 -10 170 -195 224 -226 25 -14 52 -31 61 -39
9 -7 44 -24 78 -37 34 -14 79 -38 100 -55 21 -17 46 -31 55 -31 9 0 29 -8 43
-17 42 -28 161 -69 170 -59 3 3 13 -3 22 -13 9 -11 48 -29 86 -41 39 -11 77
-24 85 -29 21 -10 143 -47 225 -68 90 -23 243 -22 261 1 6 9 17 16 25 16 11 0
11 -2 -1 -11 -11 -8 -8 -9 15 -4 30 7 199 18 288 18 30 1 52 -4 57 -13 4 -7
15 -10 23 -7 9 3 17 2 19 -3 2 -6 15 -11 31 -12 18 -2 26 -7 23 -15 -8 -19 11
-16 26 5 7 10 20 17 28 17 8 0 27 13 41 30 16 18 46 36 75 44 57 17 96 36 88
43 -3 3 11 9 31 12 19 4 35 11 35 16 0 6 5 10 10 10 16 0 12 -22 -7 -37 -16
-12 -14 -12 10 -1 21 9 30 9 39 0 18 -18 27 -14 21 9 -4 14 0 25 11 31 9 5 16
17 16 26 0 11 3 13 8 6 11 -17 35 -13 57 9 20 19 20 20 -30 15 -27 -3 -44 -3
-37 -1 10 4 7 12 -10 30 l-23 26 27 -7 c15 -3 30 -2 33 4 3 5 20 10 37 10 25
0 29 -3 25 -20 -3 -11 -1 -20 5 -20 14 0 38 -26 31 -34 -4 -3 -15 -6 -25 -6
-10 0 -18 -4 -18 -10 0 -5 16 -10 36 -10 23 0 33 -4 28 -11 -5 -8 8 -10 44 -5
64 8 92 20 115 52 l19 25 -36 -15 c-20 -8 -36 -11 -36 -7 0 10 45 31 68 31 15
1 15 2 -1 11 -13 8 -22 7 -33 -1 -7 -7 -14 -8 -14 -3 0 5 15 17 33 26 l32 18
-42 -5 c-103 -10 -23 31 95 49 41 7 50 25 12 25 -30 0 -33 19 -5 26 21 5 30 1
43 -17 9 -13 15 -32 14 -42 -2 -12 4 -20 18 -24 16 -4 18 -8 9 -14 -8 -4 -11
-10 -8 -13 4 -5 76 40 114 71 13 12 16 18 7 21 -10 3 -10 7 -1 18 9 11 8 14
-5 14 -10 0 -15 4 -12 9 3 5 27 7 53 5 l48 -3 -42 11 c-25 6 -43 17 -43 25 0
10 6 12 21 8 15 -5 19 -4 14 5 -4 6 -21 10 -38 8 -18 -2 -32 2 -34 10 -3 8 7
12 31 12 26 0 36 4 36 16 0 13 6 15 28 9 l27 -7 -25 28 c-14 15 -20 24 -13 20
20 -11 26 14 7 35 -16 17 -16 22 -4 29 8 6 18 10 22 10 12 0 -30 75 -54 96
-36 32 -183 114 -204 114 -11 0 -48 20 -83 44 -34 24 -76 50 -92 57 -18 7 -26
15 -19 19 10 6 -146 72 -205 86 -16 4 -68 25 -115 46 -66 30 -81 41 -70 49 11
7 4 8 -21 4 -26 -5 -49 -1 -82 14 -25 12 -53 21 -62 21 -8 0 -18 7 -21 15 -4
8 -13 15 -20 15 -8 0 -40 11 -72 24 -79 33 -106 40 -98 28 10 -17 -9 -22 -43
-12 -19 5 -29 5 -26 -1 9 -13 -8 -11 -75 9 -64 18 -78 38 -32 45 22 3 20 4
-10 6 -20 0 -43 -5 -51 -13 -12 -12 -20 -13 -53 -2 -76 26 -92 27 -103 9z m75
-48 c19 -14 19 -14 -2 -15 -12 0 -27 7 -34 15 -17 20 9 21 36 0z m-46 -20 c7
-8 23 -15 35 -15 12 0 28 7 35 15 14 16 70 20 86 6 23 -23 118 -41 188 -35 62
5 80 2 127 -19 31 -13 75 -38 99 -56 33 -23 54 -31 87 -31 30 0 65 -11 112
-34 37 -19 99 -44 137 -56 117 -37 165 -60 269 -130 55 -37 117 -73 138 -79
55 -18 175 -90 198 -119 25 -33 22 -130 -5 -146 -10 -6 -29 -19 -42 -29 -22
-17 -23 -20 -10 -45 20 -40 8 -106 -21 -110 -16 -2 -28 7 -48 42 -33 57 -53
58 -100 8 -20 -22 -52 -44 -75 -51 -47 -14 -73 -46 -60 -72 15 -27 12 -41 -7
-37 -11 2 -18 13 -19 26 -2 30 -18 46 -39 38 -12 -4 -15 -12 -10 -24 17 -41
17 -52 1 -52 -9 0 -22 11 -28 26 -10 20 -9 30 5 54 9 15 17 37 17 48 0 11 11
33 24 49 13 15 26 44 30 63 l6 35 50 -3 c46 -4 53 -1 86 32 30 30 35 41 32 73
-3 35 -7 40 -72 75 -38 21 -72 35 -77 32 -5 -3 -9 2 -9 10 0 9 -8 16 -17 16
-9 0 -127 54 -263 120 -250 122 -376 167 -434 155 -16 -3 -35 0 -43 7 -8 6
-36 15 -61 19 -26 4 -69 13 -97 20 -27 6 -113 12 -190 12 -124 0 -145 -2 -181
-21 -39 -20 -94 -74 -94 -91 0 -5 -13 -22 -30 -39 -16 -18 -30 -41 -30 -52 0
-13 -7 -20 -20 -20 -10 0 -34 -13 -52 -29 -64 -55 -78 -10 -23 70 40 58 44 88
15 114 -15 14 -29 16 -61 11 -58 -9 -159 -52 -189 -80 -40 -37 -166 -101 -280
-141 -58 -21 -118 -44 -133 -52 -16 -8 -35 -12 -43 -9 -18 7 -82 -24 -108 -53
-36 -40 -17 -62 111 -130 65 -34 125 -66 133 -71 8 -5 49 -28 90 -51 41 -23
109 -63 150 -90 51 -32 93 -51 133 -58 31 -6 65 -15 75 -20 11 -6 42 -7 76 -2
41 6 61 4 74 -5 9 -7 31 -14 49 -14 22 0 36 -7 43 -20 23 -44 52 -48 287 -47
l221 2 44 31 c23 17 56 50 71 73 33 47 47 52 47 15 0 -30 14 -60 43 -92 25
-27 54 -23 129 14 54 27 124 32 154 9 28 -21 51 -18 90 12 30 22 37 24 45 12
5 -8 8 -25 7 -38 -3 -21 -11 -26 -66 -37 -35 -7 -70 -18 -77 -24 -7 -6 -41
-24 -75 -41 -35 -17 -79 -42 -97 -57 -29 -21 -38 -24 -54 -14 -10 7 -36 12
-56 12 -21 0 -53 4 -70 9 -36 10 -315 -2 -398 -18 -27 -5 -54 -6 -60 -3 -5 4
-49 7 -97 7 -84 0 -88 1 -120 31 -21 20 -55 38 -93 49 -33 9 -78 29 -101 45
-22 16 -53 30 -67 32 -15 2 -39 16 -54 30 -45 42 -69 44 -102 10 l-28 -30 -79
35 c-43 20 -91 44 -106 55 -15 10 -53 31 -85 46 -112 52 -169 92 -256 177 -48
47 -87 89 -87 93 0 17 25 32 54 32 25 0 43 13 91 63 52 55 78 72 190 126 71
35 151 72 178 82 27 11 93 45 148 76 86 49 102 62 120 100 l21 44 62 -6 c45
-5 72 -2 106 10 25 9 68 21 95 25 28 5 72 16 99 24 27 9 64 16 81 16 19 0 39
8 50 20 22 24 38 25 55 5z m151 -206 c65 -7 113 -18 132 -30 29 -17 87 -92 87
-111 0 -9 -49 23 -50 33 0 3 -7 14 -16 25 -8 10 -13 13 -9 7 3 -7 2 -13 -3
-13 -6 0 -12 7 -16 15 -3 8 -10 15 -17 15 -6 0 4 -18 21 -40 17 -22 27 -40 20
-40 -6 0 5 -14 25 -31 19 -17 35 -36 35 -43 0 -6 10 -22 23 -36 49 -54 69
-191 42 -290 -6 -21 -4 -20 14 8 12 18 21 39 21 47 0 8 4 15 9 15 5 0 5 -20 0
-45 -5 -25 -7 -51 -5 -57 1 -7 1 -9 -2 -5 -2 4 -13 -2 -24 -15 l-20 -23 6 23
c4 12 3 22 -2 22 -5 0 -13 -16 -19 -35 -10 -32 -10 -34 8 -25 17 10 18 9 7
-15 -12 -27 -16 -29 -37 -16 -8 5 -10 14 -6 22 6 9 3 11 -9 6 -10 -4 -22 -7
-27 -7 -12 0 -11 -37 1 -45 6 -4 17 -1 25 5 8 7 15 8 15 4 0 -5 -9 -15 -19
-21 -15 -10 -21 -10 -24 0 -5 11 -7 2 -11 -48 -1 -14 -8 -20 -23 -19 -13 0
-23 -5 -23 -12 0 -6 -10 -18 -23 -27 -29 -19 -261 -24 -282 -7 -10 8 -19 8
-35 0 -31 -17 -155 -9 -155 10 -1 8 -30 43 -66 77 -73 70 -73 70 -120 198 -18
50 -37 96 -42 103 -14 18 -17 73 -4 65 6 -4 8 0 4 11 -7 18 21 86 35 86 5 0 7
-3 5 -7 -12 -23 -20 -51 -22 -75 -2 -15 -6 -39 -9 -53 -4 -17 -3 -24 4 -20 5
3 10 17 10 29 0 13 7 29 14 36 8 6 20 28 27 48 7 20 19 43 28 50 9 8 10 11 4
7 -20 -10 -15 3 8 28 12 12 19 17 15 10 -3 -6 0 -13 6 -16 10 -3 11 -9 1 -26
-7 -11 -13 -24 -13 -28 0 -5 5 0 11 10 5 9 16 17 24 17 20 0 46 30 38 43 -10
16 -4 70 9 82 8 7 9 6 4 -2 -5 -9 1 -13 20 -13 22 0 25 4 21 21 -15 55 59 120
131 117 23 -1 45 2 49 5 9 10 57 9 174 -4z m184 -29 c4 -6 11 -8 16 -5 9 6 64
-43 57 -51 -7 -7 -63 24 -83 46 -10 11 -13 20 -7 20 6 0 14 -5 17 -10z m-742
-60 c-15 -27 -32 -50 -36 -50 -5 0 -5 5 -1 12 4 7 3 8 -4 4 -7 -4 -12 -14 -12
-23 0 -8 -9 -27 -20 -43 -11 -15 -24 -40 -30 -55 -10 -27 -11 -27 -25 -9 -17
23 -18 19 -5 -24 7 -27 6 -33 -4 -29 -10 4 -15 -13 -21 -66 -14 -132 -9 -194
17 -208 21 -11 40 -3 22 9 -15 9 -25 64 -11 59 6 -2 16 -21 24 -42 7 -21 29
-53 48 -71 19 -17 35 -38 35 -46 0 -7 9 -21 20 -31 11 -9 20 -21 20 -27 0 -13
-23 -13 -37 1 -6 6 -35 12 -64 14 -93 7 -131 15 -165 36 -18 11 -34 23 -36 27
-2 4 -19 15 -38 24 -95 47 -205 116 -202 127 1 7 -2 9 -9 5 -16 -9 -131 47
-125 62 3 7 -2 10 -13 7 -10 -2 -34 5 -54 17 -20 12 -42 18 -48 14 -7 -4 -10
-2 -8 5 3 7 28 26 58 43 50 29 53 30 46 9 -8 -27 -3 -27 43 4 20 13 82 40 137
59 133 46 187 71 210 96 11 13 21 16 25 10 4 -6 21 3 41 23 44 43 66 55 154
83 99 32 101 32 68 -26z m1230 -108 c194 -95 240 -114 247 -102 6 10 8 3 7
-22 -1 -21 2 -36 8 -35 5 1 10 7 11 12 3 24 5 26 19 11 13 -13 14 -19 3 -36
-7 -11 -21 -23 -30 -26 -14 -4 -15 -8 -5 -19 10 -11 14 -9 25 11 14 26 28 33
18 9 -3 -8 -1 -15 4 -15 6 0 10 2 10 4 0 2 3 12 7 22 5 13 3 15 -7 9 -8 -5
-11 -3 -8 6 5 15 35 13 56 -3 18 -15 15 -31 -4 -24 -14 5 -15 4 -4 -9 13 -16
10 -17 -47 -18 -13 -1 -23 -6 -23 -13 0 -21 15 -24 43 -9 25 13 40 4 17 -10
-6 -3 -7 -18 -3 -33 6 -24 4 -25 -10 -14 -9 8 -13 20 -10 29 4 11 3 14 -6 9
-6 -4 -17 -4 -24 2 -25 19 -47 22 -47 6 0 -8 4 -13 9 -10 5 3 15 -2 22 -11 12
-15 12 -16 -3 -11 -9 4 -24 0 -35 -7 -14 -11 -15 -14 -3 -15 8 0 21 -9 28 -20
11 -18 10 -20 -10 -21 l-23 0 23 -11 c30 -15 28 -32 -3 -24 -20 5 -25 3 -25
-12 0 -11 -10 -24 -22 -30 l-23 -11 25 -1 c17 0 2 -10 -49 -30 -53 -22 -77
-28 -86 -20 -9 8 -14 6 -19 -5 -5 -13 4 -18 30 -14 4 0 11 -5 16 -13 8 -10 9
-9 5 3 -7 20 28 29 75 20 24 -5 28 -9 17 -17 -20 -17 -106 -27 -114 -14 -13
21 -56 10 -89 -25 -19 -19 -43 -35 -53 -35 -17 1 -17 2 2 16 17 13 18 16 5 24
-19 12 -43 13 -36 2 3 -5 -5 -7 -17 -6 -12 1 -28 3 -35 3 -7 1 -10 6 -7 11 9
15 -2 12 -19 -5 -13 -13 -16 -13 -30 0 -18 19 -27 19 -20 2 3 -9 -15 -23 -54
-40 -79 -36 -90 -35 -84 5 5 30 3 32 -12 19 -14 -12 -16 -11 -16 8 0 11 8 29
18 39 9 9 17 31 17 47 0 36 38 63 61 44 11 -9 15 -7 20 5 9 23 38 21 30 -1 -5
-15 -3 -14 10 2 18 23 12 103 -9 120 -7 6 -12 37 -13 80 0 39 -4 88 -9 109 -8
38 -59 130 -116 209 -16 22 -29 43 -29 47 0 4 37 -1 83 -12 60 -14 145 -50
320 -136z m-386 51 c33 -44 82 -142 91 -188 6 -27 13 -85 16 -127 4 -77 4 -78
-20 -78 -19 0 -24 5 -24 25 0 24 -9 66 -37 175 -8 30 -30 81 -49 112 -30 50
-33 60 -22 78 16 25 27 25 45 3z m-907 -110 c-22 -73 -20 -70 -31 -51 -7 13
-4 29 11 59 26 49 37 45 20 -8z m-30 -195 c0 -10 -4 -18 -8 -18 -9 0 -31 98
-24 105 7 6 32 -63 32 -87z m1755 52 c28 -11 25 -35 -4 -26 -14 5 -14 4 1 -7
16 -13 16 -15 -5 -34 -31 -29 -63 -37 -70 -19 -4 10 3 18 21 25 18 6 21 10 9
10 -15 1 -16 4 -5 24 7 12 11 25 10 30 -3 10 12 9 43 -3z m-1688 -163 c-5 -15
-37 46 -37 70 1 11 9 3 21 -20 11 -21 18 -44 16 -50z m78 -116 c68 -77 70 -81
48 -81 -13 0 -34 21 -62 66 -38 59 -73 131 -39 80 7 -11 31 -40 53 -65z m-276
-137 c8 -7 12 -16 9 -19 -7 -8 -78 26 -78 37 0 12 52 -2 69 -18z m100 -53 c17
-8 28 -17 26 -21 -6 -10 85 -45 141 -56 21 -3 46 -10 54 -15 29 -16 -37 -9
-103 11 -60 19 -217 86 -217 93 0 8 71 -1 99 -12z"/>
<path d="M1425 955 c0 -16 4 -36 9 -43 14 -22 -1 -25 -22 -4 -11 11 -17 24
-14 28 4 5 0 3 -9 -4 -9 -6 -19 -9 -22 -5 -4 3 -13 0 -22 -7 -13 -10 -19 -10
-33 4 -24 21 -39 20 -54 -4 -7 -11 -19 -20 -26 -20 -8 0 -12 -6 -9 -14 3 -7
-3 -20 -14 -29 -13 -12 -19 -13 -20 -4 -1 19 -17 -25 -18 -49 -1 -12 8 -31 19
-44 25 -29 25 -29 -2 -40 l-23 -9 24 0 c17 -1 22 -5 17 -17 -3 -9 -6 -18 -6
-20 0 -2 -6 -4 -14 -4 -8 0 -17 -4 -20 -9 -4 -5 3 -7 14 -4 28 7 26 -15 -2
-27 -23 -9 -23 -9 2 -10 16 0 34 -12 50 -34 13 -18 40 -42 60 -52 24 -13 35
-26 34 -41 0 -14 9 -26 25 -33 14 -7 33 -16 41 -20 8 -4 18 -18 21 -31 7 -23
7 -24 14 -3 4 12 17 27 29 33 12 7 27 26 33 42 6 16 19 29 28 29 9 0 13 5 10
10 -9 14 9 12 24 -2 10 -11 15 -9 27 6 8 11 14 31 14 45 0 47 11 73 28 66 13
-5 13 -3 -1 13 -9 10 -17 27 -16 38 0 10 3 14 5 8 3 -6 16 -9 29 -6 14 2 22 8
19 13 -3 5 2 9 10 9 9 0 16 5 16 11 0 7 -13 10 -35 7 -29 -3 -32 -2 -22 11 10
12 8 13 -11 7 -15 -5 -22 -3 -22 7 0 7 -15 31 -33 53 -32 37 -57 76 -57 88 0
3 9 6 20 6 11 0 20 5 20 10 0 6 -5 10 -10 10 -6 0 -15 10 -20 23 -5 12 -9 16
-9 10 -1 -7 -8 -13 -17 -13 -8 0 -13 4 -9 9 3 5 -7 16 -22 23 -28 14 -28 13
-28 -17z m-31 -81 c64 -6 69 -10 141 -106 40 -54 42 -60 35 -100 -13 -69 -27
-96 -58 -112 -16 -8 -41 -31 -56 -50 -15 -20 -32 -36 -37 -36 -6 0 -34 24 -63
53 -29 28 -67 64 -85 78 -28 24 -31 32 -31 85 0 32 -5 72 -12 89 -10 30 -8 36
22 73 26 33 38 40 59 37 14 -2 52 -7 85 -11z"/>
<path d="M1346 309 c28 -5 63 -4 80 0 22 7 10 9 -51 9 -77 0 -78 -1 -29 -9z"/>
<path d="M1542 308 c3 -7 18 -14 34 -15 28 -2 28 -2 4 6 -24 8 -23 8 10 13 34
5 33 5 -8 6 -31 2 -42 -2 -40 -10z"/>
<path d="M812 805 c-1 -11 3 -38 7 -60 l9 -40 0 35 c0 19 -4 46 -8 60 -6 20
-8 21 -8 5z"/>
<path d="M2735 372 c7 -7 -41 -42 -59 -42 -9 0 -16 -5 -16 -11 0 -12 29 -5 73
18 29 14 37 40 12 40 -8 0 -13 -2 -10 -5z"/>
<path d="M2016 75 c-14 -21 -14 -24 -1 -19 8 4 15 1 15 -6 0 -7 5 -6 15 4 20
19 19 30 -1 22 -12 -4 -15 -2 -10 9 8 22 0 18 -18 -10z"/>
<path d="M1561 33 c-14 -9 -21 -11 -17 -5 5 9 -6 12 -41 11 -43 -1 -45 -2 -18
-9 20 -5 24 -8 10 -9 -13 -1 -16 -4 -8 -9 13 -8 107 -3 99 6 -3 3 -1 11 5 19
16 18 -2 16 -30 -4z"/>
</g>
</svg>
